<?xml version="1.0" encoding="utf-8"?>
<!-- Generator: Adobe Illustrator 16.0.3, SVG Export Plug-In . SVG Version: 6.00 Build 0)  -->
<!DOCTYPE svg PUBLIC "-//W3C//DTD SVG 1.1//EN" "http://www.w3.org/Graphics/SVG/1.1/DTD/svg11.dtd">
<svg version="1.1" xmlns="http://www.w3.org/2000/svg" xmlns:xlink="http://www.w3.org/1999/xlink" x="0px" y="0px" width="177px"
	 height="167px" viewBox="1425.245 -43.552 177 167" enable-background="new 1425.245 -43.552 177 167" xml:space="preserve">
<g id="cloud">
</g>
<g id="dots">
	<g>
		<g>
			<defs>
				<polygon id="SVGID_1_" points="1459.05,-43.552 1425.245,59.659 1513.745,123.448 1602.245,59.659 1568.441,-43.552 				"/>
			</defs>
			
				<linearGradient id="SVGID_2_" gradientUnits="userSpaceOnUse" x1="1781.2454" y1="1866.1638" x2="1958.2454" y2="1866.1638" gradientTransform="matrix(1 0 0 -1 -356 1906.1108)">
				<stop  offset="0" style="stop-color:#0077E9"/>
				<stop  offset="0.1749" style="stop-color:#007DE6"/>
				<stop  offset="0.4181" style="stop-color:#008FDE"/>
				<stop  offset="0.7014" style="stop-color:#00ADD1"/>
				<stop  offset="1" style="stop-color:#00D4BF"/>
			</linearGradient>
			<use xlink:href="#SVGID_1_"  overflow="visible" fill-rule="evenodd" clip-rule="evenodd" fill="url(#SVGID_2_)"/>
			<clipPath id="SVGID_3_">
				<use xlink:href="#SVGID_1_"  overflow="visible"/>
			</clipPath>
			<g id="wireframe_3_" clip-path="url(#SVGID_3_)">
				
					<rect x="1467.379" y="-69.982" transform="matrix(-0.8798 0.4753 -0.4753 -0.8798 2769.6338 -840.2732)" fill="#DBDBDB" width="47.341" height="0"/>
				
					<rect x="1463.174" y="-66.358" transform="matrix(-0.0605 0.9982 -0.9982 -0.0605 1493 -1538.0004)" fill="#DBDBDB" width="14.291" height="0"/>
				
					<rect x="1462.687" y="-66.169" transform="matrix(-0.0605 0.9982 -0.9982 -0.0605 1492.5748 -1537.1892)" fill="#DBDBDB" width="14.044" height="0"/>
				
					<rect x="1453.583" y="-60.095" transform="matrix(0.9793 0.2023 -0.2023 0.9793 18.052 -296.8376)" fill="#DBDBDB" width="15.597" height="0"/>
				
					<rect x="1454.134" y="-60.618" transform="matrix(0.9793 0.2023 -0.2023 0.9793 17.9552 -296.9343)" fill="#DBDBDB" width="15.3" height="0"/>
				<path fill="#DBDBDB" d="M1469.885-59.224l0.021-0.393l-0.438,0.542l-0.184-0.084l0.85-14.018
					c0.205-0.107,0.413-0.208,0.618-0.313l-0.864,14.265L1469.885-59.224z"/>
				
					<rect x="1523.097" y="-26.5" transform="matrix(-0.3201 0.9474 -0.9474 -0.3201 2026.5061 -1507.4016)" fill="#DBDBDB" width="62.158" height="0"/>
				
					<rect x="1523.553" y="-26.001" transform="matrix(-0.3201 0.9474 -0.9474 -0.3201 2027.5735 -1507.1873)" fill="#DBDBDB" width="62.172" height="0"/>
				<polygon fill="#DBDBDB" points="1588.051,-7.391 1588.051,-7.391 1571.276,-2.959 				"/>
				<polygon fill="#DBDBDB" points="1586.413,-7.573 1586.413,-7.573 1570.993,-3.499 				"/>
				<polygon fill="#DBDBDB" points="1543.77,4.306 1543.783,4.265 1543.83,4.257 1543.823,4.292 				"/>
				<polygon fill="#DBDBDB" points="1563.256,-56.836 1563.256,-56.836 1552.616,-47.563 				"/>
				<polygon fill="#DBDBDB" points="1542.782,0.531 1543.838,3.652 1543.838,3.652 				"/>
				<polygon fill="#DBDBDB" points="1563.676,-56.412 1563.676,-56.412 1552.518,-46.687 				"/>
				<path fill="#DBDBDB" d="M1544.424,3.519l-1.271-3.762l1.076,3.187v0.001l19.895-58.889c0.156,0.163,0.311,0.328,0.465,0.492
					L1544.69,3.449L1544.424,3.519z"/>
				<polygon fill="#DBDBDB" points="1530.989,-77.13 1530.989,-77.13 1531.916,-48.378 				"/>
				<path fill="#DBDBDB" d="M1533.354-29.984l-0.25-0.114l-0.015-0.444l19.527-17.02l10.64-9.273c0.14,0.142,0.281,0.281,0.42,0.424
					l-11.158,9.726L1533.354-29.984z"/>
				<polygon fill="#DBDBDB" points="1532.53,-29.333 1532.656,-29.427 1532.67,-29.388 1532.531,-29.268 				"/>
				<polygon fill="#DBDBDB" points="1531.595,-76.917 1531.595,-76.917 1532.402,-51.858 				"/>
				<path fill="#DBDBDB" d="M1533.089-30.543l0.015,0.444l-0.052-0.022l-0.088-0.263l-0.188,0.137l-0.279-0.127l-0.58-18.004
					l-0.928-28.751c0.202,0.069,0.404,0.142,0.606,0.213l0.807,25.059L1533.089-30.543z"/>
				<path fill="#DBDBDB" d="M1470.031-58.821l0.064-0.081l-0.226-0.046l0.016-0.277l0.003-0.001l0.001,0l40.901-22.097
					c0.361,0.029,0.725,0.056,1.085,0.09l-41.651,22.502L1470.031-58.821z"/>
				<polygon fill="#DBDBDB" points="1466.535,18.556 1498.489,-4.632 1466.535,18.556 				"/>
				<polygon fill="#DBDBDB" points="1465.048,17.851 1465.048,17.851 1467.294,-23 				"/>
				<polygon fill="#DBDBDB" points="1465.611,18.491 1489.69,1.018 1465.611,18.491 1467.405,-14.116 				"/>
				<polygon fill="#DBDBDB" points="1469.276,-59.071 1469.276,-59.071 1469.282,-59.161 1469.284,-59.16 1469.284,-59.16 
					1469.468,-59.076 1469.438,-59.037 				"/>
				<polygon fill="#DBDBDB" points="1533.052,-30.121 1533.104,-30.098 1533.354,-29.984 1533.398,-29.964 1533.163,-29.794 				"/>
				<polygon fill="#DBDBDB" points="1532.222,-29.846 1469.83,-58.258 1469.85,-58.598 1470.031,-58.821 1470.224,-58.731 
					1470.224,-58.731 1532.496,-30.374 1532.776,-30.247 				"/>
				<polygon fill="#DBDBDB" points="1464.684,18.501 1464.684,18.501 1462.315,13.198 				"/>
				<polygon fill="#DBDBDB" points="1469.019,-58.517 1469.019,-58.517 1460.994,-48.576 1469.019,-58.517 				"/>
				<polygon fill="#DBDBDB" points="1469.83,-58.258 1467.405,-14.116 1465.611,18.491 1465.402,18.644 1453.084,-8.936 
					1465.048,17.851 1465.048,17.851 1467.294,-23 1469.206,-57.802 1461.612,-48.391 1469.85,-58.598 				"/>
				<polygon fill="#DBDBDB" points="1469.438,-59.037 1469.468,-59.076 1469.906,-59.617 1469.885,-59.224 1469.869,-58.948 				"/>
				<path fill="#DBDBDB" d="M1469.438-59.037l0.432,0.089l0.226,0.046l-0.064,0.081l-0.181,0.222l-8.238,10.207l-16.782,20.795
					l-0.145-0.15l-0.17-0.379l-0.093,0.105l-0.011-0.01l16.583-20.546l8.024-9.941l0,0l-15.274-3.155
					c0.181-0.165,0.365-0.33,0.548-0.493l14.983,3.095L1469.438-59.037z"/>
				<polygon fill="#DBDBDB" points="1444.782,-27.527 1444.685,-27.746 1444.829,-27.596 1444.836,-27.589 				"/>
				<polygon fill="#DBDBDB" points="1444.347,-27.034 1444.347,-27.034 1430.49,-11.297 				"/>
				<polygon fill="#DBDBDB" points="1421.002,-0.525 1420.993,-0.556 1421.207,-0.775 1421.219,-0.77 				"/>
				<polygon fill="#DBDBDB" points="1419.309,-8.721 1421.28,-1.741 1421.28,-1.741 				"/>
				<polygon fill="#DBDBDB" points="1420.718,-1.529 1420.718,-1.529 1417.645,-12.41 				"/>
				<path fill="#DBDBDB" d="M1444.422-28.02l-14.349,16.292l13.952-15.843l-9.195-9.567c0.098-0.185,0.193-0.372,0.293-0.555
					l9.288,9.663L1444.422-28.02z"/>
				
					<rect x="1361.654" y="-7.353" transform="matrix(0.9767 0.2146 -0.2146 0.9767 30.8312 -298.735)" fill="#DBDBDB" width="59.594" height="0.002"/>
				<path fill="#DBDBDB" d="M1421.28-1.741l-0.248,0.281l-58.107-12.766l0,0l57.794,12.698l0,0l-3.073-10.881l-5.278-18.691
					c0.211,0.018,0.424,0.042,0.639,0.065l6.304,22.315L1421.28-1.741z"/>
				
					<rect x="1628.414" y="24.67" transform="matrix(-0.9955 0.0949 -0.0949 -0.9955 3269.5391 -106.1638)" fill="#DBDBDB" width="17.76" height="0"/>
				
					<rect x="1615.843" y="13.873" transform="matrix(0.0762 0.9971 -0.9971 0.0762 1516.8046 -1609.4176)" fill="#DBDBDB" width="22.245" height="0"/>
				<polygon fill="#DBDBDB" points="1626.748,3.196 1626.748,3.196 1628.367,24.369 				"/>
				<path fill="#DBDBDB" d="M1628.409,24.921l-0.296,0.028l-0.301,0.014l-1.695-22.18c0.21,0.138,0.422,0.273,0.631,0.413
					l1.619,21.173L1628.409,24.921z"/>
				<polygon fill="#DBDBDB" points="1628.455,25.525 1628.438,25.526 1628.438,25.513 1628.454,25.512 1628.454,25.512 				"/>
				<path fill="#DBDBDB" d="M1581.594,27.303l0.007-0.2l-0.25,0.138l-0.056-0.06l30.39-31.405c0.208,0.069,0.413,0.144,0.62,0.216
					l-30.279,31.291L1581.594,27.303z"/>
				<path fill="#DBDBDB" d="M1544.959,3.991l-0.39-0.25l0.059-0.244l-0.198,0.04l-0.006-0.019l0.266-0.07l0,0l26.304-6.948
					l15.42-4.074c0.012,0.101,0.023,0.202,0.033,0.303c0.55-0.048,1.081-0.087,1.604-0.122l-16.775,4.432L1544.959,3.991z"/>
				<polygon fill="#DBDBDB" points="1532.44,55.088 1532.44,55.088 1540.088,50.84 				"/>
				<polygon fill="#DBDBDB" points="1539.634,50.412 1532.427,54.414 1532.427,54.414 				"/>
				<polygon fill="#DBDBDB" points="1580.994,27.334 1580.647,27.351 1580.816,27.538 1580.708,27.597 1544.423,4.354 
					1544.476,4.132 1544.621,4.105 1544.539,3.864 1544.57,3.742 1544.959,3.991 1581.002,27.079 				"/>
				<polygon fill="#DBDBDB" points="1466.243,19.217 1511.612,10.469 1466.243,19.217 				"/>
				<polygon fill="#DBDBDB" points="1466.182,19.925 1466.182,19.925 1491.435,33.517 				"/>
				<polygon fill="#DBDBDB" points="1479.349,26.338 1466.249,19.285 1466.25,19.285 				"/>
				<polygon fill="#DBDBDB" points="1531.967,54.659 1531.779,54.558 1543.823,4.292 1543.83,4.257 1544.476,4.132 1544.423,4.354 
					1532.427,54.414 1532.427,54.414 1532.05,54.625 1532.04,54.614 				"/>
				<polygon fill="#DBDBDB" points="1544.43,3.538 1544.628,3.498 1544.57,3.742 1544.539,3.864 				"/>
				<path fill="#DBDBDB" d="M1544.43,3.538l-0.006-0.019l-1.271-3.762l-9.989-29.551l-0.111-0.327l-0.088-0.263l-0.188,0.137
					l-0.554,0.401L1489.69,1.018l-24.079,17.473l-0.209,0.153l0.06,0.136l0.265-0.029l-0.071,0.196l0.589,0.271l45.368-8.747
					l32.172-6.205l0.047-0.008l0.646-0.125l0.146-0.027l-0.082-0.241L1544.43,3.538z M1543.838,3.652L1543.838,3.652l-77.303,14.904
					l0,0l31.953-23.188l34.041-24.702l0.127-0.093l0.014,0.039l10.112,29.919L1543.838,3.652z"/>
				<polygon fill="#DBDBDB" points="1464.191,18.928 1464.191,18.928 1439.958,7.819 				"/>
				<polygon fill="#DBDBDB" points="1444.782,-27.527 1453.084,-8.936 1465.402,18.644 1465.461,18.78 1465.427,18.784 
					1465.201,18.445 1465.109,18.696 1440.489,7.409 1464.684,18.501 1464.684,18.501 1462.315,13.198 1444.347,-27.034 
					1444.347,-27.034 1430.49,-11.297 1421.698,-1.314 1421.238,-1.416 1421.073,-1.491 1421.042,-1.459 1421.031,-1.461 
					1421.28,-1.741 1421.28,-1.741 1430.073,-11.728 1444.422,-28.02 1444.515,-28.125 1444.685,-27.746 				"/>
				<polygon fill="#DBDBDB" points="1420.553,-0.959 1420.553,-0.959 1420.553,-0.959 1393.132,27.069 1393.131,27.069 				"/>
				<polygon fill="#DBDBDB" points="1393.906,27.13 1405.895,14.875 1393.906,27.13 				"/>
				<polygon fill="#DBDBDB" points="1464.83,19.451 1464.83,19.451 1438.389,22.536 				"/>
				<polygon fill="#DBDBDB" points="1466.365,19.273 1466.25,19.285 1466.249,19.285 1465.647,18.962 1465.655,18.946 
					1466.243,19.217 1466.243,19.217 				"/>
				<polygon fill="#DBDBDB" points="1465.109,18.696 1465.06,18.827 1438.283,21.952 1464.191,18.928 1464.191,18.928 
					1439.958,7.819 1421.219,-0.77 1421.207,-0.775 1421.65,-1.227 1440.489,7.409 				"/>
				<polygon fill="#DBDBDB" points="1421.238,-1.416 1421.042,-1.459 1421.073,-1.491 				"/>
				<polygon fill="#DBDBDB" points="1376.674,13.442 1392.868,26.938 1392.868,26.938 				"/>
				
					<rect x="1347.665" y="11.126" transform="matrix(0.7682 0.6402 -0.6402 0.7682 325.3314 -876.3539)" fill="#DBDBDB" width="50.601" height="0"/>
				<path fill="#DBDBDB" d="M1421.031-1.461l0.011,0.002l0.195,0.043l0.461,0.102l0.03,0.006l-0.079,0.081l-0.442,0.452
					l-0.214,0.219l-15.099,15.432l-11.989,12.254l-0.462,0.054v-0.009l-0.207,0.029l-0.104-0.135l27.421-28.028l0,0l-58.204-12.787
					c0.191-0.161,0.382-0.323,0.575-0.481L1421.031-1.461z"/>
				<polygon fill="#DBDBDB" points="1392.765,27.87 1392.765,27.87 1373.439,30.618 				"/>
				
					<rect x="1336.962" y="18.546" transform="matrix(0.3659 0.9306 -0.9306 0.3659 874.3403 -1246.228)" fill="#DBDBDB" width="29.579" height="0"/>
				<path fill="#DBDBDB" d="M1392.868,26.938l-0.035,0.316l-0.284,0.033l0.01,0.013l-19.471,2.768l19.313-2.746l0,0l-38.873-32.393
					c0.129-0.151,0.257-0.303,0.387-0.452l22.759,18.964L1392.868,26.938z"/>
				
					<rect x="1335.436" y="35.573" transform="matrix(0.9726 -0.2325 0.2325 0.9726 28.6041 313.876)" fill="#DBDBDB" width="21.253" height="0"/>
				<path fill="#DBDBDB" d="M1357.115,32.323l-0.158-0.241l-0.167,0.305l-0.224,0.033l-10.612-26.987
					c0.129-0.217,0.255-0.435,0.386-0.649l10.824,27.527L1357.115,32.323z"/>
				
					<rect x="1623.769" y="66.665" transform="matrix(-0.6949 0.7191 -0.7191 -0.6949 2830.8462 -1067.7166)" fill="#DBDBDB" width="36.309" height="0"/>
				<polygon fill="#DBDBDB" points="1646.221,86.068 1646.221,86.068 1642.965,84.943 				"/>
				
					<rect x="1624.072" y="67.386" transform="matrix(-0.6949 0.7191 -0.7191 -0.6949 2831.6084 -1066.5653)" fill="#DBDBDB" width="35.965" height="0"/>
				
					<rect x="1601.222" y="52.606" transform="matrix(-0.016 -0.9999 0.9999 -0.016 1601.7732 1681.5146)" fill="#DBDBDB" width="54.105" height="0"/>
				<polygon fill="#DBDBDB" points="1628.787,81.115 1628.733,81.171 1628.73,80.974 1628.77,80.948 				"/>
				<path fill="#DBDBDB" d="M1629.317,80.235l-0.889-55.301l-0.314,0.016l0.296-0.028l17.388-1.659
					c0.111,0.188,0.228,0.375,0.337,0.565l-17.68,1.686l-0.017,0.001v0.013l0.87,54.193l0,0l25.231-26.11
					c0.007,0.281,0.009,0.564,0.012,0.845l-24.993,25.862L1629.317,80.235z"/>
				<polygon fill="#DBDBDB" points="1580.994,27.334 1580.992,27.439 1580.816,27.538 1580.647,27.351 				"/>
				<polygon fill="#DBDBDB" points="1628.708,79.655 1627.841,25.557 1627.841,25.557 1581.929,27.88 1581.59,27.505 
					1581.594,27.303 1582.026,27.281 1627.813,24.963 1627.813,24.963 1628.114,24.949 1628.428,24.933 1629.317,80.235 
					1629.298,80.228 1629.27,79.942 1629.075,80.062 				"/>
				<polygon fill="#DBDBDB" points="1628.559,80.38 1581.568,28.369 1579.508,110.551 1579.508,110.551 1581.59,27.505 
					1581.929,27.88 1628.708,79.655 1628.708,79.655 1629.075,80.062 1628.984,80.119 1628.427,79.927 1628.631,80.337 
					1579.722,110.474 1579.722,110.474 				"/>
				
					<rect x="1538.82" y="69.241" transform="matrix(0.0251 -0.9997 0.9997 0.0251 1471.1074 1646.9539)" fill="#DBDBDB" width="82.25" height="0"/>
				<polygon fill="#DBDBDB" points="1580.992,27.439 1580.994,27.334 1581.002,27.079 1581.007,26.861 1581.295,27.18 
					1581.351,27.24 				"/>
				<polygon fill="#DBDBDB" points="1628.77,80.948 1628.77,80.948 1628.73,80.974 1579.662,111.21 1579.662,111.21 				"/>
				<polygon fill="#DBDBDB" points="1579.473,111.944 1579.314,111.755 1579.325,111.721 1579.475,111.876 				"/>
				<polygon fill="#DBDBDB" points="1544.18,69.976 1531.917,55.394 1531.917,55.394 				"/>
				<path fill="#DBDBDB" d="M1581.594,27.303l0.007-0.2l-0.25,0.138l-0.358,0.198l-0.177,0.1l-0.107,0.059l-41.074,22.815
					l-7.207,4.001l-0.377,0.211l0.122,0.144l0.396,0.215l-0.142,0.089l46.815,55.67l0.266-0.193l2.082-83.046L1581.594,27.303z
					 M1540.088,50.84l40.889-22.71l0,0l-2.063,82.225l0,0l-46.475-55.266l0,0L1540.088,50.84z"/>
				<polygon fill="#DBDBDB" points="1502.242,74.648 1502.242,74.648 1517.752,82.071 				"/>
				<polygon fill="#DBDBDB" points="1513.884,79.561 1502.316,74.024 1502.316,74.024 				"/>
				<polygon fill="#DBDBDB" points="1531.39,55.024 1510.831,67.963 1531.39,55.024 				"/>
				<polygon fill="#DBDBDB" points="1531.967,54.659 1532.04,54.614 1532.05,54.625 1532.172,54.769 				"/>
				<polygon fill="#DBDBDB" points="1531.917,55.394 1531.917,55.394 1512.241,67.777 1532.427,55.073 1579.242,110.744 
					1579.229,110.755 1579.062,110.578 1579.013,110.733 1578.078,110.285 1544.18,69.976 				"/>
				<polygon fill="#DBDBDB" points="1501.853,73.613 1510.831,67.963 1531.39,55.024 1531.39,55.024 1491.435,33.517 
					1466.182,19.925 1465.61,19.063 1465.647,18.962 1466.249,19.285 1479.349,26.338 1531.779,54.558 1531.967,54.659 
					1532.172,54.769 1532.569,54.984 1532.427,55.073 1512.241,67.777 1502.316,74.024 1502.316,74.024 1502.202,73.969 
					1502.613,73.546 1501.89,73.712 				"/>
				<polygon fill="#DBDBDB" points="1501.746,73.584 1478.937,39.171 1501.746,73.584 				"/>
				<polygon fill="#DBDBDB" points="1501.216,73.866 1501.216,73.866 1492.792,61.155 				"/>
				<polygon fill="#DBDBDB" points="1439.327,88.678 1439.397,88.493 1439.493,88.512 1439.489,88.641 				"/>
				<polygon fill="#DBDBDB" points="1465.354,19.757 1465.61,19.063 1466.182,19.925 1466.182,19.925 1478.937,39.171 
					1501.746,73.584 1501.636,73.698 1501.16,73.47 1501.303,73.845 1501.216,73.866 1492.792,61.155 				"/>
				<polygon fill="#DBDBDB" points="1465.06,18.827 1465.109,18.696 1465.201,18.445 1465.427,18.784 				"/>
				<polygon fill="#DBDBDB" points="1438.283,21.952 1465.06,18.827 1465.427,18.784 1465.461,18.78 1465.726,18.75 
					1465.655,18.946 1465.647,18.962 1465.61,19.063 1465.354,19.757 1440.269,87.853 1439.919,87.933 1439.703,87.655 
					1464.83,19.451 1464.83,19.451 1438.389,22.536 1393.661,27.757 1433.49,79.571 1393.414,27.436 1393.444,27.184 
					1393.906,27.13 1393.906,27.13 				"/>
				<polygon fill="#DBDBDB" points="1392.559,27.301 1392.549,27.287 1392.833,27.254 1392.833,27.261 				"/>
				<polygon fill="#DBDBDB" points="1440.506,88.696 1440.089,88.621 1440.091,88.504 1440.317,88.451 				"/>
				<polygon fill="#DBDBDB" points="1387.248,77.893 1387.248,77.892 1390.757,46.083 				"/>
				<polygon fill="#DBDBDB" points="1393.414,27.436 1433.49,79.571 1439.703,87.655 1439.919,87.933 1439.791,87.964 
					1439.091,87.835 1393.322,28.292 				"/>
				<polygon fill="#DBDBDB" points="1387.79,78.422 1387.79,78.422 1391.318,46.461 				"/>
				<polygon fill="#DBDBDB" points="1392.833,27.261 1392.833,27.254 1392.868,26.938 1392.868,26.938 1392.888,26.752 
					1393.131,27.069 1393.132,27.069 1393.237,27.204 				"/>
				<polygon fill="#DBDBDB" points="1386.822,78.33 1359.801,37.466 1386.822,78.33 				"/>
				<polygon fill="#DBDBDB" points="1356.497,32.469 1356.472,32.431 1356.566,32.419 1356.789,32.386 1356.781,32.403 				"/>
				<polygon fill="#DBDBDB" points="1393.414,27.436 1393.322,28.292 1391.318,46.461 1387.79,78.422 1387.665,78.432 
					1387.522,78.007 1387.433,78.172 1360.458,37.379 1387.248,77.892 1387.248,77.893 1390.757,46.083 1392.765,27.87 
					1392.765,27.87 1373.439,30.618 1357.488,32.886 1357.327,32.644 1357.526,32.282 1373.088,30.068 1392.559,27.301 
					1392.833,27.261 1393.237,27.204 1393.444,27.175 1393.444,27.184 				"/>
				<polygon fill="#DBDBDB" points="1347.049,82.172 1386.927,79.085 1386.925,79.085 				"/>
				<polygon fill="#DBDBDB" points="1347.232,81.563 1386.853,78.495 1386.853,78.495 				"/>
				<polygon fill="#DBDBDB" points="1357.488,32.886 1360.458,37.379 1387.433,78.172 1387.295,78.415 1386.822,78.33 
					1359.801,37.466 1357.004,33.237 1351.488,43.347 1357.327,32.644 				"/>
				<polygon fill="#DBDBDB" points="1356.781,32.403 1356.789,32.386 1356.956,32.081 1357.115,32.323 				"/>
				<path fill="#DBDBDB" d="M1356.781,32.403l0.333-0.08l0.049-0.013l0,0l0.398-0.095l-0.036,0.067l-0.198,0.362l-5.84,10.703
					l-12.339,22.605c-0.085-0.261-0.169-0.521-0.252-0.784l17.501-32.066l0,0l-20.671,4.94c0.015-0.206,0.025-0.414,0.04-0.619
					l20.73-4.954L1356.781,32.403z"/>
				<polygon fill="#DBDBDB" points="1637.408,97.841 1637.408,97.841 1632.809,88.666 				"/>
				<path fill="#DBDBDB" d="M1629.313,80.363l-0.015-0.135l0.019,0.006l0.241,0.083l0,0l13.407,4.626l3.256,1.125
					c-0.101,0.175-0.206,0.347-0.309,0.521l-16.299-5.624l8.229,16.412l0,0L1629.313,80.363z"/>
				<polygon fill="#DBDBDB" points="1628.984,80.119 1628.631,80.337 1628.427,79.927 				"/>
				<path fill="#DBDBDB" d="M1629.483,82.033l-0.17-1.67l8.53,17.014c-0.144,0.155-0.289,0.31-0.435,0.463l-4.6-9.174
					L1629.483,82.033z"/>
				<path fill="#DBDBDB" d="M1628.77,80.948L1628.77,80.948l-49.107,30.262l-0.021-0.021l0.128-0.093l-0.214-0.103l0.166-0.519
					l48.909-30.138l0.353-0.218l0.092-0.057l0.194-0.12l0.028,0.286l0.015,0.135l0.17,1.67l2.153,21.182
					c-0.184,0.152-0.37,0.298-0.556,0.447l-2.293-22.547L1628.77,80.948z"/>
				<polygon fill="#DBDBDB" points="1579.325,111.721 1579.325,111.721 1584.875,117.556 1584.875,117.556 1579.475,111.876 				"/>
				<polygon fill="#DBDBDB" points="1579.229,110.755 1579.162,110.804 1579.013,110.733 1579.062,110.578 				"/>
				<polygon fill="#DBDBDB" points="1579.325,111.721 1579.449,111.329 1579.642,111.189 1579.662,111.21 1579.662,111.21 
					1585.698,117.556 1584.875,117.556 				"/>
				
					<rect x="1568.899" y="114.379" transform="matrix(0.8069 -0.5907 0.5907 0.8069 236.4351 952.0009)" fill="#DBDBDB" width="10.757" height="0"/>
				<polygon fill="#DBDBDB" points="1576.838,117.556 1578.631,111.928 1570.944,117.556 1570.944,117.556 1579.449,111.329 
					1579.325,111.721 1579.325,111.721 1579.314,111.755 1577.465,117.556 				"/>
				<polygon fill="#DBDBDB" points="1579.162,110.804 1579.229,110.755 1579.242,110.744 1579.508,110.551 1579.508,110.551 
					1579.757,110.369 1579.722,110.474 1579.722,110.474 1579.556,110.993 				"/>
				<polygon fill="#DBDBDB" points="1501.636,73.698 1501.547,73.79 1501.303,73.845 1501.16,73.47 				"/>
				<polygon fill="#DBDBDB" points="1578.617,111.202 1517.752,82.071 1502.242,74.648 1502.048,74.13 1502.202,73.969 
					1502.316,74.024 1513.884,79.561 1578.078,110.285 1579.013,110.733 1579.162,110.804 1579.556,110.993 1579.77,111.096 
					1579.642,111.189 1579.449,111.329 1570.944,117.556 1569.938,117.556 1578.617,111.202 				"/>
				<polygon fill="#DBDBDB" points="1502.048,74.13 1502.242,74.648 1502.242,74.648 1518.403,117.556 1517.766,117.556 
					1501.588,74.606 				"/>
				<polygon fill="#DBDBDB" points="1460.115,117.556 1460.114,117.556 1493.141,83.354 				"/>
				<polygon fill="#DBDBDB" points="1501.746,73.584 1501.746,73.584 1501.816,73.513 1501.853,73.613 1501.89,73.712 
					1501.547,73.79 1501.636,73.698 				"/>
				<polygon fill="#DBDBDB" points="1440.317,88.451 1440.091,88.504 1440.104,88.02 1439.791,87.964 1439.919,87.933 
					1440.269,87.853 1501.216,73.866 1501.216,73.866 1501.303,73.845 1501.547,73.79 1501.89,73.712 1502.613,73.546 
					1502.202,73.969 1502.048,74.13 1501.588,74.606 1493.141,83.354 1460.114,117.556 1459.285,117.556 1500.793,74.572 				"/>
				<polygon fill="#DBDBDB" points="1439.493,88.512 1439.493,88.512 1439.117,104.086 1439.489,88.641 				"/>
				<polygon fill="#DBDBDB" points="1387.815,78.712 1387.916,78.528 1439.091,87.835 1439.791,87.964 1440.104,88.02 
					1440.091,88.504 1440.089,88.621 1439.392,117.556 1438.794,117.556 1439.117,104.086 1439.493,88.512 1439.493,88.512 
					1439.397,88.493 1388.215,79.186 1420.527,117.556 1420.527,117.556 				"/>
				<polygon fill="#DBDBDB" points="1387.295,78.415 1387.27,78.463 1386.853,78.495 1386.853,78.495 1386.695,78.306 
					1386.822,78.33 1386.822,78.33 				"/>
				<polygon fill="#DBDBDB" points="1400.49,116.798 1400.49,116.798 1396.663,105.354 				"/>
				<polygon fill="#DBDBDB" points="1387.78,78.776 1387.815,78.712 1420.527,117.556 1419.746,117.556 1388.234,80.134 				"/>
				
					<rect x="1373.988" y="98.093" transform="matrix(-0.3171 -0.9484 0.9484 -0.3171 1742.4329 1450.8998)" fill="#DBDBDB" width="39.24" height="0"/>
				<polygon fill="#DBDBDB" points="1386.927,79.085 1386.927,79.085 1371.656,106.674 1371.656,106.674 1386.925,79.085 				"/>
				<polygon fill="#DBDBDB" points="1387.433,78.172 1387.522,78.007 1387.665,78.432 1387.27,78.463 1387.295,78.415 				"/>
				<path fill="#DBDBDB" d="M1387.78,78.776l0.454,1.358l8.43,25.22l3.826,11.444c-0.221-0.03-0.441-0.066-0.661-0.097
					l-12.441-37.215l0,0l-15.219,27.493l0,0L1387.78,78.776z"/>
				<path fill="#DBDBDB" d="M1386.853,78.495l0.417-0.033l0.396-0.03l0.125-0.01l0,0l0.192-0.014l-0.066,0.12l-0.102,0.184
					l-0.035,0.064l-15.611,28.203c-0.172-0.101-0.342-0.204-0.512-0.305l15.271-27.589l0,0l-39.878,3.087l-0.309,0.025
					c-0.118-0.189-0.232-0.379-0.35-0.569l0.841-0.064L1386.853,78.495z"/>
			</g>
			<g id="dots_2_" clip-path="url(#SVGID_3_)">
				<ellipse fill="#FFFFFF" cx="1465.134" cy="19.032" rx="2.233" ry="2.216"/>
				<ellipse fill="#FFFFFF" cx="1444" cy="-28.02" rx="2.233" ry="2.214"/>
				<ellipse fill="#FFFFFF" cx="1421.27" cy="-1.924" rx="2.232" ry="2.216"/>
				<ellipse fill="#FFFFFF" cx="1392.961" cy="27.454" rx="2.233" ry="2.214"/>
				<ellipse fill="#FFFFFF" cx="1387.312" cy="78.679" rx="2.234" ry="2.213"/>
				<ellipse fill="#FFFFFF" cx="1533.044" cy="-30.244" rx="2.233" ry="2.214"/>
				<ellipse fill="#FFFFFF" cx="1469.412" cy="-58.777" rx="2.232" ry="2.214"/>
				<ellipse fill="#FFFFFF" cx="1544.086" cy="3.809" rx="2.232" ry="2.215"/>
				<ellipse fill="#FFFFFF" cx="1581.838" cy="27.628" rx="2.233" ry="2.214"/>
				<ellipse fill="#FFFFFF" cx="1628.893" cy="80.218" rx="2.233" ry="2.214"/>
				<ellipse fill="#FFFFFF" cx="1356.934" cy="32.373" rx="2.233" ry="2.215"/>
				<ellipse fill="#FFFFFF" cx="1439.479" cy="88.521" rx="2.233" ry="2.215"/>
				<ellipse fill="#FFFFFF" cx="1500.889" cy="73.892" rx="2.232" ry="2.213"/>
				<ellipse fill="#FFFFFF" cx="1531.992" cy="55.306" rx="2.233" ry="2.214"/>
				<ellipse fill="#FFFFFF" cx="1579.048" cy="111.061" rx="2.232" ry="2.212"/>
				<ellipse fill="#FFFFFF" cx="1628.095" cy="25.256" rx="2.234" ry="2.214"/>
			</g>
			<polygon clip-path="url(#SVGID_3_)" fill="#047EA8" points="1550.202,81.185 1597.11,127.089 1576.031,127.089 1535.861,123.084 
							"/>
			<polygon clip-path="url(#SVGID_3_)" fill="#029BB0" points="1618.008,118.517 1595.602,135.453 1591.622,135.453 
				1582.588,52.772 			"/>
			<polygon clip-path="url(#SVGID_3_)" fill="#64C4FE" points="1471.443,-25.878 1522.899,-51.749 1524.573,-3.361 			"/>
			<path clip-path="url(#SVGID_3_)" fill="#4FB2FD" d="M1477.7-23.815l-34.013-6.538c4.16-8.042,9.168-15.319,14.861-21.717
				l21.695-10.805L1477.7-23.815z"/>
			<path clip-path="url(#SVGID_3_)" fill="#62C6FE" d="M1472.355-60.523l17.031-16.377c0.063-0.023,0.13-0.048,0.194-0.072
				l34.921,32.791L1472.355-60.523z"/>
			<path clip-path="url(#SVGID_3_)" fill="#85D5FF" d="M1485.143-74.003c0.076-0.027,0.148-0.054,0.223-0.081l35.811-5.085
				c11.244,0.603,22.031,2.994,32.063,6.904l-21.702,9.733L1485.143-74.003z"/>
			<polygon clip-path="url(#SVGID_3_)" fill="#7ED4FF" points="1528.864,-68.085 1545.412,-21.781 1516.297,-48.356 			"/>
			<path clip-path="url(#SVGID_3_)" fill="#78E1FE" d="M1538.883-23.038l24.575-42.952c13.079,9.057,23.822,21.232,31.104,35.479
				l2.79,10.814L1538.883-23.038z"/>
			<polygon clip-path="url(#SVGID_3_)" fill="#47D6FE" points="1540.767,-28.95 1589.25,1.801 1523.76,17.904 			"/>
			<polygon clip-path="url(#SVGID_3_)" fill="#26B3FB" points="1520.707,-9.533 1529.419,14.448 1469.2,25.256 			"/>
			<polygon clip-path="url(#SVGID_3_)" fill="#1EB3F2" points="1556.28,30.076 1517.553,50.097 1527.176,12.726 			"/>
			<polygon clip-path="url(#SVGID_3_)" fill="#1192E7" points="1522.734,48.839 1498.657,62.939 1469.699,22.27 			"/>
			<polygon clip-path="url(#SVGID_3_)" fill="#0A76D2" points="1420.148,28.79 1474.843,22.851 1455.532,71.635 			"/>
			<path clip-path="url(#SVGID_3_)" fill="#BBF4FB" d="M1594.428-24.341c0.154,0.397,0.306,0.795,0.452,1.196l-1.552,0.263
				L1594.428-24.341z"/>
			<path clip-path="url(#SVGID_3_)" fill="#BEF0FF" d="M1590.922-32.208c1.301,2.547,2.47,5.174,3.506,7.867l-1.1,1.459
				L1590.922-32.208z"/>
			<path clip-path="url(#SVGID_3_)" fill="#6BCFFE" d="M1529.205-64.102l17.606-7.896c6.147,2.396,11.942,5.494,17.288,9.195
				l-21.192,37.039L1529.205-64.102z"/>
			<path clip-path="url(#SVGID_3_)" fill="#7CB7FF" d="M1516.218-77.726c1.537,0,3.065,0.046,4.583,0.128l-29.051,4.125
				C1499.524-76.244,1507.749-77.726,1516.218-77.726z"/>
			<path clip-path="url(#SVGID_3_)" fill="#81CBFF" d="M1518.801-47.767l-27.286-25.621c0.019-0.007,0.037-0.014,0.055-0.02
				l37.636,9.305L1518.801-47.767z"/>
			<path clip-path="url(#SVGID_3_)" fill="#7BAAFB" d="M1470.783-62.026c6.33-4.834,13.249-8.648,20.579-11.306l-13.308,12.797
				L1470.783-62.026z"/>
			<polygon clip-path="url(#SVGID_3_)" fill="#4DB4FD" points="1478.055,-60.535 1518.801,-47.767 1475.816,-26.154 			"/>
			<path clip-path="url(#SVGID_3_)" fill="#799AEE" d="M1458.958-51.025c3.643-4.091,7.602-7.773,11.825-11.001l7.271,1.491
				L1458.958-51.025z"/>
			<path clip-path="url(#SVGID_3_)" fill="#66EBFE" d="M1598.185-11.571c0.608,2.929,1.067,5.914,1.356,8.951
				c1.814-0.159,3.481-0.245,5.098-0.245c6.081,0,11.966,0.85,17.539,2.436l-37.381,1.234L1598.185-11.571z"/>
			<path clip-path="url(#SVGID_3_)" fill="#8AEDFE" d="M1593.328-22.882l1.552-0.263c1.372,3.738,2.479,7.603,3.305,11.574
				l-13.388,12.375L1593.328-22.882z"/>
			<polygon clip-path="url(#SVGID_3_)" fill="#76E3FE" points="1593.328,-22.882 1584.797,0.805 1542.907,-25.764 			"/>
			<polygon clip-path="url(#SVGID_3_)" fill="#48CBFA" points="1520.199,-7.344 1542.907,-25.764 1528.214,14.718 			"/>
			<polygon clip-path="url(#SVGID_3_)" fill="#6AD3F7" points="1518.801,-47.767 1542.907,-25.764 1520.199,-7.344 			"/>
			<polygon clip-path="url(#SVGID_3_)" fill="#3BB1F5" points="1472.816,24.659 1475.816,-26.154 1520.199,-7.344 			"/>
			<polygon clip-path="url(#SVGID_3_)" fill="#38A1EE" points="1458.188,-5.825 1475.816,-26.154 1472.816,24.659 			"/>
			<path clip-path="url(#SVGID_3_)" fill="#40AAFD" d="M1458.188-5.825l-16.762-16.229c1.325-3.414,2.816-6.698,4.451-9.855
				l29.938,5.755L1458.188-5.825z"/>
			<path clip-path="url(#SVGID_3_)" fill="#289BFD" d="M1441.846,11.446l-11.172-36.811c2.562,0.681,5.152,1.517,7.596,2.305
				c1.094,0.354,2.148,0.696,3.154,1.015c0-0.002,0.002-0.005,0.002-0.009l16.762,16.229L1441.846,11.446z"/>
			<path clip-path="url(#SVGID_3_)" fill="#198FF6" d="M1382.364-0.716l33.718-25.853c1.893-0.141,3.805-0.214,5.733-0.214
				c2.708,0,5.765,0.596,8.859,1.418l11.172,36.811L1382.364-0.716z"/>
			<path clip-path="url(#SVGID_3_)" fill="#5980CF" d="M1383.787-16.617c9.627-5.56,20.594-9.08,32.294-9.952l-33.718,25.853
				L1383.787-16.617z"/>
			<path clip-path="url(#SVGID_3_)" fill="#4B7CC8" d="M1371.313-7.615c3.829-3.4,8.008-6.421,12.475-9.002l-1.424,15.901
				L1371.313-7.615z"/>
			<path clip-path="url(#SVGID_3_)" fill="#3275C4" d="M1351.338,20.729c2.512-6.277,5.854-12.14,9.889-17.458l-9.731,40.323
				L1351.338,20.729z"/>
			<path clip-path="url(#SVGID_3_)" fill="#1258C1" d="M1347.379,62.492c-0.882-4.577-1.351-9.3-1.351-14.13
				c0-9.752,1.884-19.076,5.31-27.633l0.157,22.866L1347.379,62.492z"/>
			<path clip-path="url(#SVGID_3_)" fill="#25EBEA" d="M1650.714,16.719c10.926,11.348,17.646,26.713,17.646,43.601
				c0,0.537-0.006,1.07-0.02,1.604l-24.191-22.993L1650.714,16.719z"/>
			<path clip-path="url(#SVGID_3_)" fill="#46FFFD" d="M1629,24.952l16.901-12.739c1.682,1.42,3.289,2.922,4.813,4.505
				l-6.565,22.212L1629,24.952z"/>
			<path clip-path="url(#SVGID_3_)" fill="#4FF6FE" d="M1631.506,3.035c5.22,2.418,10.058,5.515,14.396,9.179L1629,24.952
				L1631.506,3.035z"/>
			<path clip-path="url(#SVGID_3_)" fill="#69EAFE" d="M1584.797,0.805l37.381-1.234c3.221,0.916,6.337,2.079,9.328,3.464
				L1629,24.952L1584.797,0.805z"/>
			<polygon clip-path="url(#SVGID_3_)" fill="#36E9FE" points="1584.797,0.805 1629,24.952 1587.086,28.671 			"/>
			<polygon clip-path="url(#SVGID_3_)" fill="#2BD7F9" points="1554.215,30.219 1584.797,0.805 1587.086,28.671 			"/>
			<polygon clip-path="url(#SVGID_3_)" fill="#29CEFA" points="1528.214,14.718 1584.797,0.805 1554.215,30.219 			"/>
			<polygon clip-path="url(#SVGID_3_)" fill="#18A6ED" points="1528.214,14.718 1519.617,48.106 1472.816,24.659 			"/>
			<polygon clip-path="url(#SVGID_3_)" fill="#2191ED" points="1441.846,11.446 1458.188,-5.825 1472.816,24.659 			"/>
			<polygon clip-path="url(#SVGID_3_)" fill="#1B7BE6" points="1422.176,30.158 1441.846,11.446 1472.816,24.659 			"/>
			<polygon clip-path="url(#SVGID_3_)" fill="#0C79E2" points="1382.364,-0.716 1441.846,11.446 1422.176,30.158 			"/>
			<polygon clip-path="url(#SVGID_3_)" fill="#065BAC" points="1396.825,33.513 1382.364,-0.716 1422.176,30.158 			"/>
			<polygon clip-path="url(#SVGID_3_)" fill="#155CCC" points="1351.495,43.595 1382.364,-0.716 1396.825,33.513 			"/>
			<path clip-path="url(#SVGID_3_)" fill="#1A6CCC" d="M1351.495,43.595l9.731-40.323c2.997-3.949,6.378-7.595,10.086-10.887
				l11.051,6.899L1351.495,43.595z"/>
			<path clip-path="url(#SVGID_3_)" fill="#18E3DC" d="M1644.149,38.93l24.191,22.993c-0.058,2.26-0.238,4.491-0.529,6.686
				l-48.012,6.417L1644.149,38.93z"/>
			<polygon clip-path="url(#SVGID_3_)" fill="#25EBEA" points="1644.149,38.93 1619.799,75.025 1629,24.952 			"/>
			<polygon clip-path="url(#SVGID_3_)" fill="#18D2E1" points="1619.799,75.025 1587.707,64.72 1629,24.952 			"/>
			<polygon clip-path="url(#SVGID_3_)" fill="#26DAF2" points="1629,24.952 1587.707,64.72 1587.086,28.671 			"/>
			<polygon clip-path="url(#SVGID_3_)" fill="#1EC6EC" points="1587.086,28.671 1587.707,64.72 1554.215,30.219 			"/>
			<polygon clip-path="url(#SVGID_3_)" fill="#0DACDB" points="1587.707,64.72 1552.745,84.77 1554.215,30.219 			"/>
			<polygon clip-path="url(#SVGID_3_)" fill="#0BA4DA" points="1554.215,30.219 1552.745,84.77 1519.617,48.106 			"/>
			<polygon clip-path="url(#SVGID_3_)" fill="#078CC9" points="1519.617,48.106 1552.745,84.77 1498.371,60.549 			"/>
			<polygon clip-path="url(#SVGID_3_)" fill="#0A7BD1" points="1472.816,24.659 1498.371,60.549 1454.938,69.827 			"/>
			<polygon clip-path="url(#SVGID_3_)" fill="#0658A3" points="1454.938,69.827 1418.21,63.609 1422.176,30.158 			"/>
			<polygon clip-path="url(#SVGID_3_)" fill="#04498D" points="1422.176,30.158 1418.21,63.609 1396.825,33.513 			"/>
			<polygon clip-path="url(#SVGID_3_)" fill="#04498D" points="1418.21,63.609 1377.453,66.547 1396.825,33.513 			"/>
			<polygon clip-path="url(#SVGID_3_)" fill="#0E41C3" points="1377.453,66.547 1351.495,43.595 1396.825,33.513 			"/>
			<path clip-path="url(#SVGID_3_)" fill="#0B29B0" d="M1377.453,66.547l-24.607,12.918c-2.468-5.351-4.32-11.038-5.467-16.972
				l4.116-18.897L1377.453,66.547z"/>
			<path clip-path="url(#SVGID_3_)" fill="#00C9C3" d="M1667.811,68.609c-2.161,16.282-10.597,30.629-22.813,40.57l-25.198-34.153
				L1667.811,68.609z"/>
			<path clip-path="url(#SVGID_3_)" fill="#00B6BC" d="M1619.799,75.025l25.198,34.153c-3.536,2.877-7.389,5.385-11.497,7.463
				l-20.61-5.178L1619.799,75.025z"/>
			<polygon clip-path="url(#SVGID_3_)" fill="#02B1C4" points="1612.89,111.464 1587.707,64.72 1619.799,75.025 			"/>
			<polygon clip-path="url(#SVGID_3_)" fill="#0290AC" points="1587.707,64.72 1594.129,123.504 1592.326,123.504 1552.745,84.77 
							"/>
			<polygon clip-path="url(#SVGID_3_)" fill="#036E95" points="1552.745,84.77 1540.644,120.124 1517.807,108.573 			"/>
			<polygon clip-path="url(#SVGID_3_)" fill="#03739D" points="1498.371,60.549 1552.745,84.77 1517.807,108.573 			"/>
			<polygon clip-path="url(#SVGID_3_)" fill="#03578B" points="1517.807,108.573 1454.073,103.247 1498.371,60.549 			"/>
			<polygon clip-path="url(#SVGID_3_)" fill="#045794" points="1498.371,60.549 1454.073,103.247 1454.938,69.827 			"/>
			<polygon clip-path="url(#SVGID_3_)" fill="#024377" points="1454.073,103.247 1418.21,63.609 1454.938,69.827 			"/>
			<polygon clip-path="url(#SVGID_3_)" fill="#022D51" points="1438.397,119.812 1418.21,63.609 1454.073,103.247 			"/>
			<path clip-path="url(#SVGID_3_)" fill="#011D37" d="M1438.397,119.812l-47.655-3.006c-1.099-0.49-2.183-1.006-3.252-1.546
				l30.721-51.65L1438.397,119.812z"/>
			<path clip-path="url(#SVGID_3_)" fill="#01274C" d="M1418.21,63.609l-30.721,51.65c-0.376-0.189-0.747-0.384-1.117-0.58
				l-8.919-48.133L1418.21,63.609z"/>
			<path clip-path="url(#SVGID_3_)" fill="#0806A4" d="M1386.372,114.68c-14.718-7.743-26.567-20.144-33.526-35.215l24.607-12.918
				L1386.372,114.68z"/>
			<path clip-path="url(#SVGID_3_)" fill="#01A5B2" d="M1633.5,116.642c-4.583,2.319-9.484,4.103-14.619,5.27l-5.991-10.448
				L1633.5,116.642z"/>
			<path clip-path="url(#SVGID_3_)" fill="#029CAD" d="M1618.881,121.912c-4.582,1.04-9.347,1.592-14.242,1.592h-7.68l15.931-12.04
				L1618.881,121.912z"/>
			<polygon clip-path="url(#SVGID_3_)" fill="#047EA8" points="1540.644,120.124 1574.54,123.504 1543.375,123.504 			"/>
			<polygon clip-path="url(#SVGID_3_)" fill="#185DB1" points="1543.375,123.504 1539.607,123.504 1540.644,120.124 			"/>
			<polygon clip-path="url(#SVGID_3_)" fill="#036492" points="1540.644,120.124 1539.607,123.504 1521.153,123.504 
				1517.807,108.573 			"/>
			<polygon clip-path="url(#SVGID_3_)" fill="#035A86" points="1521.153,123.504 1513.611,123.504 1517.807,108.573 			"/>
			<polygon clip-path="url(#SVGID_3_)" fill="#02507B" points="1513.611,123.504 1492.891,123.504 1517.807,108.573 			"/>
			<polygon clip-path="url(#SVGID_3_)" fill="#024673" points="1517.807,108.573 1492.891,123.504 1460.376,123.504 
				1454.073,103.247 			"/>
			<polygon clip-path="url(#SVGID_3_)" fill="#02335B" points="1454.073,103.247 1460.376,123.504 1443.369,123.504 
				1438.397,119.812 			"/>
			<polygon clip-path="url(#SVGID_3_)" fill="#06179B" points="1443.369,123.504 1436.156,123.504 1438.397,119.812 			"/>
			<path clip-path="url(#SVGID_3_)" fill="#011E38" d="M1436.156,123.504h-2.453h-11.888h-2.604v-0.134
				c-10.111-0.344-19.729-2.658-28.47-6.564l47.655,3.006L1436.156,123.504z"/>
		</g>
		<polygon fill-rule="evenodd" clip-rule="evenodd" fill="#FFFFFF" points="1503.122,39.604 1538.78,39.604 1549.599,25.84 
			1493.385,25.84 1482.918,11.378 1558.483,11.378 1566.631,-1.031 1459.946,-1.031 1513.4,81.247 1523.44,65.727 		"/>
	</g>
</g>
</svg>
